<svg xmlns="http://www.w3.org/2000/svg" xmlns:xlink="http://www.w3.org/1999/xlink" version="1.1" data-diagram-type="SEQUENCE" style="width:563px;height:843px;" width="563px" height="843px" viewBox="0 0 563 843" zoomAndPan="magnify" preserveAspectRatio="none" contentStyleType="text/css"><?plantuml 1.2026.8beta1?><defs/><g font-family="sans-serif" lengthAdjust="spacing"><rect x="8" y="8" width="542.413" height="38.281" fill="#FFC" style="stroke:#FD8;stroke-width:3;" rx="2.5" ry="2.5"/><text x="15" y="18.641" fill="#000" font-size="10" textLength="361.23" font-family="monospace">Please use CSS style instead of skinparam ParticipantPadding</text><text x="15" y="40.281" fill="#000" font-size="10" textLength="295.005" font-family="monospace">Please use CSS style instead of skinparam padding</text><g><title>Alice.A</title><rect x="107.5" y="94.578" width="8" height="696.586" fill="#000" fill-opacity="0"/><line x1="111" y1="94.578" x2="111" y2="791.164" style="stroke:#ABB2B9;stroke-width:0.5;stroke-dasharray:5,5;"/></g><g><title>Proxy1.P1</title><rect x="243.247" y="94.578" width="8" height="696.586" fill="#000" fill-opacity="0"/><line x1="246.747" y1="94.578" x2="246.747" y2="791.164" style="stroke:#ABB2B9;stroke-width:0.5;stroke-dasharray:5,5;"/></g><g><title>Proxy2.P2</title><rect x="378.993" y="94.578" width="8" height="696.586" fill="#000" fill-opacity="0"/><line x1="382.493" y1="94.578" x2="382.493" y2="791.164" style="stroke:#ABB2B9;stroke-width:0.5;stroke-dasharray:5,5;"/></g><g><title>Bob.B</title><rect x="506.913" y="94.578" width="8" height="696.586" fill="#000" fill-opacity="0"/><line x1="510.413" y1="94.578" x2="510.413" y2="791.164" style="stroke:#ABB2B9;stroke-width:0.5;stroke-dasharray:5,5;"/></g><rect x="69" y="53.281" width="84" height="40.297" fill="#EAECEE" style="stroke:#ABB2B9;stroke-width:0.5;" rx="5" ry="5"/><text x="81" y="78.276" fill="#ABB2B9" font-size="14" textLength="57.244">Alice@A</text><rect x="194.951" y="53.281" width="103.591" height="40.297" fill="#EAECEE" style="stroke:#ABB2B9;stroke-width:0.5;" rx="5" ry="5"/><text x="206.951" y="78.276" fill="#ABB2B9" font-size="14" textLength="79.591">Proxy1@P1</text><rect x="330.698" y="53.281" width="103.591" height="40.297" fill="#EAECEE" style="stroke:#ABB2B9;stroke-width:0.5;" rx="5" ry="5"/><text x="342.698" y="78.276" fill="#ABB2B9" font-size="14" textLength="79.591">Proxy2@P2</text><rect x="468.413" y="53.281" width="84" height="40.297" fill="#EAECEE" style="stroke:#ABB2B9;stroke-width:0.5;" rx="5" ry="5"/><text x="480.413" y="78.276" fill="#ABB2B9" font-size="14" textLength="50.661">Bob@B</text><rect x="69" y="791.164" width="84" height="40.297" fill="#EAECEE" style="stroke:#ABB2B9;stroke-width:0.5;" rx="5" ry="5"/><text x="81" y="816.159" fill="#ABB2B9" font-size="14" textLength="57.244">Alice@A</text><rect x="194.951" y="791.164" width="103.591" height="40.297" fill="#EAECEE" style="stroke:#ABB2B9;stroke-width:0.5;" rx="5" ry="5"/><text x="206.951" y="816.159" fill="#ABB2B9" font-size="14" textLength="79.591">Proxy1@P1</text><rect x="330.698" y="791.164" width="103.591" height="40.297" fill="#EAECEE" style="stroke:#ABB2B9;stroke-width:0.5;" rx="5" ry="5"/><text x="342.698" y="816.159" fill="#ABB2B9" font-size="14" textLength="79.591">Proxy2@P2</text><rect x="468.413" y="791.164" width="84" height="40.297" fill="#EAECEE" style="stroke:#ABB2B9;stroke-width:0.5;" rx="5" ry="5"/><text x="480.413" y="816.159" fill="#ABB2B9" font-size="14" textLength="50.661">Bob@B</text><polygon points="234.747,129.711,244.747,133.711,234.747,137.711,238.747,133.711" fill="#F38BA8" style="stroke:#F38BA8;stroke-width:1;stroke-linejoin:miter;stroke-miterlimit:10;"/><line x1="111" y1="133.711" x2="240.747" y2="133.711" style="stroke:#F38BA8;stroke-width:2;"/><text x="123" y="123.645" fill="#ABB2B9" font-size="13" textLength="46.96" font-family="monospace">INVITE</text><text x="169.96" y="123.645" fill="#ABB2B9" font-size="13" font-family="monospace"> </text><text x="177.787" y="123.645" fill="#ABB2B9" font-size="13" textLength="46.96" font-family="monospace">bob@P1</text><path d="M15,112.578 L15,137.578 A5,5 0 0 0 20,142.578 L101,142.578 A5,5 0 0 0 106,137.578 L106,117.578 L96,107.578 L20,107.578 A5,5 0 0 0 15,112.578" style="stroke:#B7950B;stroke-width:0.5;" fill="#FCF3CF"/><path d="M96,107.578 L96,115.078 A2.5,2.5 0 0 0 98.5,117.578 L106,117.578 L96,107.578" style="stroke:#B7950B;stroke-width:0.5;" fill="#FCF3CF"/><text x="26" y="129.645" fill="#ABB2B9" font-size="13" textLength="31.307" font-family="monospace">m: A</text><polygon points="370.493,174.844,380.493,178.844,370.493,182.844,374.493,178.844" fill="#F38BA8" style="stroke:#F38BA8;stroke-width:1;stroke-linejoin:miter;stroke-miterlimit:10;"/><line x1="246.747" y1="178.844" x2="376.493" y2="178.844" style="stroke:#F38BA8;stroke-width:2;"/><text x="258.747" y="168.778" fill="#ABB2B9" font-size="13" textLength="46.96" font-family="monospace">INVITE</text><text x="305.707" y="168.778" fill="#ABB2B9" font-size="13" font-family="monospace"> </text><text x="313.533" y="168.778" fill="#ABB2B9" font-size="13" textLength="46.96" font-family="monospace">bob@P2</text><path d="M150.747,157.711 L150.747,197.711 A5,5 0 0 0 155.747,202.711 L236.747,202.711 A5,5 0 0 0 241.747,197.711 L241.747,162.711 L231.747,152.711 L155.747,152.711 A5,5 0 0 0 150.747,157.711" style="stroke:#B7950B;stroke-width:0.5;" fill="#FCF3CF"/><path d="M231.747,152.711 L231.747,160.211 A2.5,2.5 0 0 0 234.247,162.711 L241.747,162.711 L231.747,152.711" style="stroke:#B7950B;stroke-width:0.5;" fill="#FCF3CF"/><text x="161.747" y="174.778" fill="#ABB2B9" font-size="13" textLength="46.96" font-family="monospace">RR: P1</text><text x="161.747" y="189.911" fill="#ABB2B9" font-size="13" textLength="31.307" font-family="monospace">m: A</text><polygon points="498.413,235.109,508.413,239.109,498.413,243.109,502.413,239.109" fill="#F38BA8" style="stroke:#F38BA8;stroke-width:1;stroke-linejoin:miter;stroke-miterlimit:10;"/><line x1="382.493" y1="239.109" x2="504.413" y2="239.109" style="stroke:#F38BA8;stroke-width:2;"/><text x="394.493" y="229.043" fill="#ABB2B9" font-size="13" textLength="46.96" font-family="monospace">INVITE</text><text x="441.453" y="229.043" fill="#ABB2B9" font-size="13" font-family="monospace"> </text><text x="449.28" y="229.043" fill="#ABB2B9" font-size="13" textLength="39.133" font-family="monospace">bob@B</text><path d="M286.493,217.977 L286.493,272.977 A5,5 0 0 0 291.493,277.977 L372.493,277.977 A5,5 0 0 0 377.493,272.977 L377.493,222.977 L367.493,212.977 L291.493,212.977 A5,5 0 0 0 286.493,217.977" style="stroke:#B7950B;stroke-width:0.5;" fill="#FCF3CF"/><path d="M367.493,212.977 L367.493,220.477 A2.5,2.5 0 0 0 369.993,222.977 L377.493,222.977 L367.493,212.977" style="stroke:#B7950B;stroke-width:0.5;" fill="#FCF3CF"/><text x="297.493" y="235.043" fill="#ABB2B9" font-size="13" textLength="46.96" font-family="monospace">RR: P1</text><text x="297.493" y="250.176" fill="#ABB2B9" font-size="13" textLength="46.96" font-family="monospace">RR: P2</text><text x="297.493" y="265.309" fill="#ABB2B9" font-size="13" textLength="31.307" font-family="monospace">m: A</text><polygon points="393.493,310.508,383.493,314.508,393.493,318.508,389.493,314.508" fill="#A6E3A1" style="stroke:#A6E3A1;stroke-width:1;stroke-linejoin:miter;stroke-miterlimit:10;"/><line x1="387.493" y1="314.508" x2="509.413" y2="314.508" style="stroke:#A6E3A1;stroke-width:2;stroke-dasharray:2,2;"/><text x="404.493" y="304.442" fill="#ABB2B9" font-size="13" textLength="24.813">200</text><text x="429.306" y="304.442" fill="#ABB2B9" font-size="13"> </text><text x="433.438" y="304.442" fill="#ABB2B9" font-size="13" textLength="18.757">OK</text><path d="M286.493,293.375 L286.493,348.375 A5,5 0 0 0 291.493,353.375 L372.493,353.375 A5,5 0 0 0 377.493,348.375 L377.493,298.375 L367.493,288.375 L291.493,288.375 A5,5 0 0 0 286.493,293.375" style="stroke:#B7950B;stroke-width:0.5;" fill="#FCF3CF"/><path d="M367.493,288.375 L367.493,295.875 A2.5,2.5 0 0 0 369.993,298.375 L377.493,298.375 L367.493,288.375" style="stroke:#B7950B;stroke-width:0.5;" fill="#FCF3CF"/><text x="297.493" y="310.442" fill="#ABB2B9" font-size="13" textLength="46.96" font-family="monospace">RR: P1</text><text x="297.493" y="325.575" fill="#ABB2B9" font-size="13" textLength="46.96" font-family="monospace">RR: P2</text><text x="297.493" y="340.708" fill="#ABB2B9" font-size="13" textLength="39.133" font-family="monospace">m: Bo</text><polygon points="257.747,385.906,247.747,389.906,257.747,393.906,253.747,389.906" fill="#A6E3A1" style="stroke:#A6E3A1;stroke-width:1;stroke-linejoin:miter;stroke-miterlimit:10;"/><line x1="251.747" y1="389.906" x2="381.493" y2="389.906" style="stroke:#A6E3A1;stroke-width:2;stroke-dasharray:2,2;"/><text x="268.747" y="379.84" fill="#ABB2B9" font-size="13" textLength="24.813">200</text><text x="293.56" y="379.84" fill="#ABB2B9" font-size="13"> </text><text x="297.692" y="379.84" fill="#ABB2B9" font-size="13" textLength="18.757">OK</text><path d="M150.747,368.773 L150.747,423.773 A5,5 0 0 0 155.747,428.773 L236.747,428.773 A5,5 0 0 0 241.747,423.773 L241.747,373.773 L231.747,363.773 L155.747,363.773 A5,5 0 0 0 150.747,368.773" style="stroke:#B7950B;stroke-width:0.5;" fill="#FCF3CF"/><path d="M231.747,363.773 L231.747,371.273 A2.5,2.5 0 0 0 234.247,373.773 L241.747,373.773 L231.747,363.773" style="stroke:#B7950B;stroke-width:0.5;" fill="#FCF3CF"/><text x="161.747" y="385.84" fill="#ABB2B9" font-size="13" textLength="46.96" font-family="monospace">RR: P1</text><text x="161.747" y="400.973" fill="#ABB2B9" font-size="13" textLength="46.96" font-family="monospace">RR: P2</text><text x="161.747" y="416.106" fill="#ABB2B9" font-size="13" textLength="39.133" font-family="monospace">m: Bo</text><polygon points="122,461.305,112,465.305,122,469.305,118,465.305" fill="#A6E3A1" style="stroke:#A6E3A1;stroke-width:1;stroke-linejoin:miter;stroke-miterlimit:10;"/><line x1="116" y1="465.305" x2="245.747" y2="465.305" style="stroke:#A6E3A1;stroke-width:2;stroke-dasharray:2,2;"/><text x="133" y="455.239" fill="#ABB2B9" font-size="13" textLength="24.813">200</text><text x="157.813" y="455.239" fill="#ABB2B9" font-size="13"> </text><text x="161.945" y="455.239" fill="#ABB2B9" font-size="13" textLength="18.757">OK</text><path d="M15,444.172 L15,499.172 A5,5 0 0 0 20,504.172 L101,504.172 A5,5 0 0 0 106,499.172 L106,449.172 L96,439.172 L20,439.172 A5,5 0 0 0 15,444.172" style="stroke:#B7950B;stroke-width:0.5;" fill="#FCF3CF"/><path d="M96,439.172 L96,446.672 A2.5,2.5 0 0 0 98.5,449.172 L106,449.172 L96,439.172" style="stroke:#B7950B;stroke-width:0.5;" fill="#FCF3CF"/><text x="26" y="461.239" fill="#ABB2B9" font-size="13" textLength="46.96" font-family="monospace">RR: P1</text><text x="26" y="476.372" fill="#ABB2B9" font-size="13" textLength="46.96" font-family="monospace">RR: P2</text><text x="26" y="491.504" fill="#ABB2B9" font-size="13" textLength="39.133" font-family="monospace">m: Bo</text><polygon points="234.747,536.703,244.747,540.703,234.747,544.703,238.747,540.703" fill="#F38BA8" style="stroke:#F38BA8;stroke-width:1;stroke-linejoin:miter;stroke-miterlimit:10;"/><line x1="111" y1="540.703" x2="240.747" y2="540.703" style="stroke:#F38BA8;stroke-width:2;"/><text x="123" y="530.637" fill="#ABB2B9" font-size="13" textLength="23.48" font-family="monospace">ACK</text><text x="146.48" y="530.637" fill="#ABB2B9" font-size="13" font-family="monospace"> </text><text x="154.307" y="530.637" fill="#ABB2B9" font-size="13" textLength="31.307" font-family="monospace">Bo@B</text><path d="M15,519.57 L15,574.57 A5,5 0 0 0 20,579.57 L101,579.57 A5,5 0 0 0 106,574.57 L106,524.57 L96,514.57 L20,514.57 A5,5 0 0 0 15,519.57" style="stroke:#B7950B;stroke-width:0.5;" fill="#FCF3CF"/><path d="M96,514.57 L96,522.07 A2.5,2.5 0 0 0 98.5,524.57 L106,524.57 L96,514.57" style="stroke:#B7950B;stroke-width:0.5;" fill="#FCF3CF"/><text x="26" y="536.637" fill="#ABB2B9" font-size="13" textLength="39.133" font-family="monospace">R: P1</text><text x="26" y="551.77" fill="#ABB2B9" font-size="13" textLength="39.133" font-family="monospace">R: P2</text><text x="26" y="566.903" fill="#ABB2B9" font-size="13" textLength="31.307" font-family="monospace">m: A</text><polygon points="370.493,612.102,380.493,616.102,370.493,620.102,374.493,616.102" fill="#F38BA8" style="stroke:#F38BA8;stroke-width:1;stroke-linejoin:miter;stroke-miterlimit:10;"/><line x1="246.747" y1="616.102" x2="376.493" y2="616.102" style="stroke:#F38BA8;stroke-width:2;"/><text x="258.747" y="606.036" fill="#ABB2B9" font-size="13" textLength="23.48" font-family="monospace">ACK</text><text x="282.227" y="606.036" fill="#ABB2B9" font-size="13" font-family="monospace"> </text><text x="290.053" y="606.036" fill="#ABB2B9" font-size="13" textLength="31.307" font-family="monospace">Bo@B</text><path d="M150.747,594.969 L150.747,664.969 A5,5 0 0 0 155.747,669.969 L236.747,669.969 A5,5 0 0 0 241.747,664.969 L241.747,599.969 L231.747,589.969 L155.747,589.969 A5,5 0 0 0 150.747,594.969" style="stroke:#B7950B;stroke-width:0.5;" fill="#FCF3CF"/><path d="M231.747,589.969 L231.747,597.469 A2.5,2.5 0 0 0 234.247,599.969 L241.747,599.969 L231.747,589.969" style="stroke:#B7950B;stroke-width:0.5;" fill="#FCF3CF"/><text x="161.747" y="612.036" fill="#ABB2B9" font-size="13" textLength="46.96" font-family="monospace">RR: P1</text><text x="161.747" y="627.168" fill="#ABB2B9" font-size="13" textLength="39.133" font-family="monospace">R: P1</text><text x="161.747" y="642.301" fill="#ABB2B9" font-size="13" textLength="39.133" font-family="monospace">R: P2</text><text x="161.747" y="657.434" fill="#ABB2B9" font-size="13" textLength="31.307" font-family="monospace">m: A</text><polygon points="498.413,702.633,508.413,706.633,498.413,710.633,502.413,706.633" fill="#F38BA8" style="stroke:#F38BA8;stroke-width:1;stroke-linejoin:miter;stroke-miterlimit:10;"/><line x1="382.493" y1="706.633" x2="504.413" y2="706.633" style="stroke:#F38BA8;stroke-width:2;"/><text x="394.493" y="696.567" fill="#ABB2B9" font-size="13" textLength="23.48" font-family="monospace">ACK</text><text x="417.973" y="696.567" fill="#ABB2B9" font-size="13" font-family="monospace"> </text><text x="425.8" y="696.567" fill="#ABB2B9" font-size="13" textLength="31.307" font-family="monospace">Bo@B</text><path d="M286.493,685.5 L286.493,770.5 A5,5 0 0 0 291.493,775.5 L372.493,775.5 A5,5 0 0 0 377.493,770.5 L377.493,690.5 L367.493,680.5 L291.493,680.5 A5,5 0 0 0 286.493,685.5" style="stroke:#B7950B;stroke-width:0.5;" fill="#FCF3CF"/><path d="M367.493,680.5 L367.493,688 A2.5,2.5 0 0 0 369.993,690.5 L377.493,690.5 L367.493,680.5" style="stroke:#B7950B;stroke-width:0.5;" fill="#FCF3CF"/><text x="297.493" y="702.567" fill="#ABB2B9" font-size="13" textLength="46.96" font-family="monospace">RR: P1</text><text x="297.493" y="717.7" fill="#ABB2B9" font-size="13" textLength="46.96" font-family="monospace">RR: P2</text><text x="297.493" y="732.833" fill="#ABB2B9" font-size="13" textLength="39.133" font-family="monospace">R: P1</text><text x="297.493" y="747.965" fill="#ABB2B9" font-size="13" textLength="39.133" font-family="monospace">R: P2</text><text x="297.493" y="763.098" fill="#ABB2B9" font-size="13" textLength="31.307" font-family="monospace">m: A</text><?plantuml-src jLRVRzem47xFNs71SoKIrD7oC167C5MjDbIwxQ7QWuaTi4XiPfiLDlL_d_C3wYHEeMhXpVVTVT_T-Gv7hYXR8u5IC2OnsYHgmfaAUC85wBe3h-VvZZoup56qMWY-OJZAFPH0J6g8C6LuJP5GDA9hnDGKOKpP0bmQCEHRczbcAwK48mAuFGD8qJObKg85aVGl0LxF1EKIOVwKSSKeaSGCeon8a9G_ALPBC323V27uKrlTEVYmfD6AQLNW6L306QQASXOoF5ExX81bGXbn31SKAVg7gXtuvpIR2myjBUsX7mPXw40kC16bpOVGWzVQjsx8dSp4nXIbEgCsrZri8PyfVMrLKtW8BmtFZbcN9BytX4N4MfUbduqkZdLRT1wsRFPGQnqvR96D5BSI5a0BtHsDoPs-DLlW0Mk9DQRT5cx2nnaiyy6trb7GvXgTkOnVj7rTdmxND5Vf2g0blsVpqXbNzWklqCB1zMKFWkPqJu99FvY0AcU417x_SZHsmJA2JObA8bBFYFvFEKCkrNfvkkPCtzEvXHZ7Poy68uNcI6Ow7yXAcI8YHj6Pqd_pczPy74jw-mjIWewpVjbjqF4J6f6Htm58Wkz-K0MdWcztxcZgvd1nidXuewdtuk5LFI2VZs19FzFgMWHalyTktB-QewjV5v_rgU0UWaxdvkkFcuSGp7MOrkqu-N8d95OEq6Ww1Bus4eRphNUAk1fRaKQTp6kGtTyFGQxHoknLcNK5mopt2Z5ydJS_U2qYMJjc6UF5OnTz8dtaPZBx_47s4G6-tRw57d9B4HNsGwy_YDwjqMTZD7mtzT4vyODR7MBhlgdnIk-FZ4uxVrtWPB7MQJfHonGuLVW_?></g></svg>