<svg xmlns="http://www.w3.org/2000/svg" xmlns:xlink="http://www.w3.org/1999/xlink" version="1.1" data-diagram-type="SEQUENCE" style="width:392px;height:280px;" width="392px" height="280px" viewBox="0 0 392 280" zoomAndPan="magnify" preserveAspectRatio="none" contentStyleType="text/css"><?plantuml 1.2026.8beta1?><defs/><g font-family="sans-serif" lengthAdjust="spacing"><rect x="8" y="8" width="371.23" height="38.281" fill="#FFC" style="stroke:#FD8;stroke-width:3;" rx="2.5" ry="2.5"/><text x="15" y="18.641" fill="#000" font-size="10" textLength="361.23" font-family="monospace">Please use CSS style instead of skinparam ParticipantPadding</text><text x="15" y="40.281" fill="#000" font-size="10" textLength="295.005" font-family="monospace">Please use CSS style instead of skinparam padding</text><g><title>UAC</title><rect x="48.5" y="94.578" width="8" height="174.531" fill="#000" fill-opacity="0"/><line x1="52" y1="94.578" x2="52" y2="269.109" style="stroke:#ABB2B9;stroke-width:0.5;stroke-dasharray:5,5;"/></g><g><title>UAS</title><rect x="175.573" y="94.578" width="8" height="174.531" fill="#000" fill-opacity="0"/><line x1="179.073" y1="94.578" x2="179.073" y2="269.109" style="stroke:#ABB2B9;stroke-width:0.5;stroke-dasharray:5,5;"/></g><rect x="10" y="53.281" width="84" height="40.297" fill="#EAECEE" style="stroke:#ABB2B9;stroke-width:0.5;" rx="5" ry="5"/><text x="22" y="78.276" fill="#ABB2B9" font-size="14" textLength="29.6">UAC</text><rect x="137.073" y="53.281" width="84" height="40.297" fill="#EAECEE" style="stroke:#ABB2B9;stroke-width:0.5;" rx="5" ry="5"/><text x="149.073" y="78.276" fill="#ABB2B9" font-size="14" textLength="28.711">UAS</text><polygon points="167.073,129.711,177.073,133.711,167.073,137.711,171.073,133.711" fill="#E74C3C" style="stroke:#E74C3C;stroke-width:1;stroke-linejoin:miter;stroke-miterlimit:10;"/><line x1="52" y1="133.711" x2="173.073" y2="133.711" style="stroke:#E74C3C;stroke-width:2;"/><text x="64" y="123.645" fill="#ABB2B9" font-size="13" font-weight="700">1</text><text x="87.045" y="123.645" fill="#ABB2B9" font-size="13" textLength="42.44">INVITE</text><polygon points="63,168.844,53,172.844,63,176.844,59,172.844" fill="#E74C3C" style="stroke:#E74C3C;stroke-width:1;stroke-linejoin:miter;stroke-miterlimit:10;"/><line x1="57" y1="172.844" x2="178.073" y2="172.844" style="stroke:#E74C3C;stroke-width:2;"/><text x="74" y="162.778" fill="#ABB2B9" font-size="13" font-weight="700">2</text><text x="97.045" y="162.778" fill="#ABB2B9" font-size="13" textLength="24.813">100</text><text x="121.858" y="162.778" fill="#ABB2B9" font-size="13"> </text><text x="125.991" y="162.778" fill="#ABB2B9" font-size="13" textLength="41.082">Trying</text><polygon points="63,207.977,53,211.977,63,215.977,59,211.977" fill="#E74C3C" style="stroke:#E74C3C;stroke-width:1;stroke-linejoin:miter;stroke-miterlimit:10;"/><line x1="57" y1="211.977" x2="178.073" y2="211.977" style="stroke:#E74C3C;stroke-width:2;"/><text x="74" y="201.911" fill="#ABB2B9" font-size="13" font-weight="700">3</text><text x="97.045" y="201.911" fill="#ABB2B9" font-size="13" textLength="24.813">486</text><text x="121.858" y="201.911" fill="#ABB2B9" font-size="13"> </text><text x="125.991" y="201.911" fill="#ABB2B9" font-size="13" textLength="31.624">Busy</text><polygon points="167.073,247.109,177.073,251.109,167.073,255.109,171.073,251.109" fill="#E74C3C" style="stroke:#E74C3C;stroke-width:1;stroke-linejoin:miter;stroke-miterlimit:10;"/><line x1="52" y1="251.109" x2="173.073" y2="251.109" style="stroke:#E74C3C;stroke-width:2;"/><text x="64" y="241.043" fill="#ABB2B9" font-size="13" font-weight="700">4</text><text x="87.045" y="241.043" fill="#ABB2B9" font-size="13" textLength="26.495">ACK</text><?plantuml-src jLLTRzem57tthx3KvqaXRSVQXqc92LErQge4tHwcFbnYXrWarynsLjZK_pv3K-GGfzMqmHldt7lkftFDIk8QDDHq8WfeAZjLQ9cgbAPdet4SnGan1vC5vAkbLWtoV6zXDQ1nb43hMTs1jZANQq1x1vnBND9BZqxL9WI7i3QKHg7fAFA86ZQrC0QMmiXVWiQHJveIk7hSQHLG6U6xIMGL6FDDSblIiU-KQAqUX-hUa_DIvYjqKMdiKKmXbrOgp93FxBOIjAma2kAPG6xbJsctz3VfDpSzjBJ5ioHZMKPIfRdGBPQaQPnUETjZO6_a9pQHKBkCXbHVw83upBgnTQ7iuDu2JyIlouWVZS1S1EiAzBFNnObhYyiZbCqBDLZ7dWw4pQqA2ZuJ0tAtiX2tRceXnmCtuEjjUyZTfzzM2Eo7sWHNmS57SlvZ_EJmzV5sZ7ouA_TC3EJtv0yTbGqFl2ERZgykevJsjtlAfkTiIhkQEMZ-xu-ZznO2AzWFqKd4k1rntvGJvDAjLzLhXMvEfmw4Yf-y60uM5c1sSVwZgaGhT07vYTB_wvlMFuwjVFY2j2GXq5Y5JRqGcfJkYqKBfUn2RGYvJnZT_RwVPUCBTiuUtdrq_-wJsJMz-VBrPfuvYrdGWbsxMnZHkTww4_UQrSM7zpHjpFQrM0dxJFu0?></g></svg>